<?xml version="1.0" encoding="utf-8"?>
<!-- Generator: Adobe Illustrator 22.0.1, SVG Export Plug-In . SVG Version: 6.00 Build 0)  -->
<svg version="1.1" id="Слой_1" xmlns="http://www.w3.org/2000/svg" xmlns:xlink="http://www.w3.org/1999/xlink" x="0px" y="0px"
	 viewBox="0 0 32 22" style="enable-background:new 0 0 32 22;" xml:space="preserve">
<style type="text/css">
	.st0{clip-path:url(#SVGID_2_);}
	.st1{fill:#2E2F42;}
</style>
<g>
	<defs>
		<rect id="SVGID_1_" y="0" width="32" height="22"/>
	</defs>
	<clipPath id="SVGID_2_">
		<use xlink:href="#SVGID_1_"  style="overflow:visible;"/>
	</clipPath>
	<g class="st0">
		<g>
			<path class="st1" d="M30.9,21.5H1.3c-0.8,0-1.5-0.7-1.5-1.5s0.7-1.5,1.5-1.5h29.5c0.8,0,1.5,0.7,1.5,1.5S31.7,21.5,30.9,21.5z
				 M30.9,12.2H1.3c-0.8,0-1.5-0.7-1.5-1.5s0.7-1.5,1.5-1.5h29.5c0.8,0,1.5,0.7,1.5,1.5S31.7,12.2,30.9,12.2z M30.9,2.9H1.3
				c-0.8,0-1.5-0.7-1.5-1.5s0.7-1.5,1.5-1.5h29.5c0.8,0,1.5,0.7,1.5,1.5S31.7,2.9,30.9,2.9z"/>
		</g>
	</g>
</g>
</svg>
